<?xml version="1.0" standalone="no"?>
<!DOCTYPE svg PUBLIC "-//W3C//DTD SVG 20010904//EN"
 "http://www.w3.org/TR/2001/REC-SVG-20010904/DTD/svg10.dtd">
<svg version="1.0" xmlns="http://www.w3.org/2000/svg"
 width="298.000000pt" height="96.000000pt" viewBox="0 0 298.000000 96.000000"
 preserveAspectRatio="xMidYMid meet">

<g transform="translate(0.000000,96.000000) scale(0.100000,-0.100000)"
fill="#000000" stroke="none">
<path d="M1338 913 c7 -3 16 -2 19 1 4 3 -2 6 -13 5 -11 0 -14 -3 -6 -6z"/>
<path d="M1399 909 c14 -5 31 -15 38 -21 7 -6 13 -6 13 -1 0 11 -44 33 -63 32
-7 0 -1 -5 12 -10z"/>
<path d="M1234 836 c-3 -15 -4 -30 0 -33 3 -3 2 -11 -4 -17 -5 -7 -5 -17 0
-26 8 -12 10 -12 10 3 0 14 5 17 20 12 11 -4 20 -2 20 4 0 6 -5 10 -11 9 -6
-2 -13 12 -15 31 -5 45 -11 50 -20 17z"/>
<path d="M1488 811 c3 -25 0 -29 -28 -34 -29 -6 -31 -10 -29 -40 3 -35 -7 -61
-21 -52 -4 3 -11 -2 -14 -11 -9 -23 -8 -24 13 -24 15 0 18 -5 14 -22 l-6 -23
24 22 c20 20 22 26 11 59 -14 46 2 87 30 78 15 -4 18 0 18 30 0 19 -4 37 -8
40 -5 3 -7 -8 -4 -23z"/>
<path d="M1365 770 c3 -5 11 -10 16 -10 6 0 7 5 4 10 -3 6 -11 10 -16 10 -6 0
-7 -4 -4 -10z"/>
<path d="M1485 700 c0 -22 1 -40 2 -40 10 0 23 45 18 60 -10 33 -20 23 -20
-20z"/>
<path d="M1290 685 c7 -9 15 -13 17 -11 7 7 -7 26 -19 26 -6 0 -6 -6 2 -15z"/>
<path d="M1244 628 c-12 -29 -12 -68 0 -67 13 1 28 -29 21 -41 -3 -6 1 -10 9
-10 12 0 13 -5 4 -31 -6 -17 -18 -35 -28 -41 -10 -7 -16 -18 -13 -25 4 -11 10
-10 32 3 25 17 26 17 11 -2 -7 -10 -21 -25 -30 -33 -13 -12 -11 -12 15 -6 17
3 39 15 51 26 28 26 49 24 62 -6 6 -14 16 -25 22 -25 5 0 10 -5 10 -11 0 -6 9
-22 20 -36 35 -44 22 -11 -20 52 -22 33 -40 63 -40 66 0 4 -18 34 -40 67 -42
62 -49 79 -27 65 6 -4 17 -8 22 -9 6 0 16 -2 23 -2 6 -1 12 -7 12 -13 0 -6 -9
-9 -20 -6 -27 7 -25 -2 2 -12 15 -6 30 -3 45 6 28 18 38 12 48 -29 l9 -33 3
33 c3 17 8 32 13 32 5 0 6 -8 3 -17 -6 -16 -5 -17 12 -3 11 9 16 10 11 3 -4
-8 -2 -13 7 -13 8 0 25 -12 38 -26 61 -67 56 -64 89 -52 l32 11 -38 38 c-21
22 -44 39 -51 39 -7 0 -29 15 -49 32 -22 19 -46 32 -57 30 -13 -3 -17 0 -11 9
4 7 -2 6 -15 -3 -24 -17 -86 -15 -105 3 -6 5 -17 9 -26 9 -8 0 -22 11 -31 26
l-15 25 -10 -23z"/>
<path d="M131 492 c-18 -42 -40 -85 -49 -94 -14 -17 -13 -18 14 -18 20 0 25 3
15 9 -10 7 -11 13 -2 30 17 30 87 30 96 0 5 -14 2 -25 -6 -30 -9 -6 -1 -9 25
-9 36 0 38 1 24 18 -9 9 -30 51 -47 92 -18 41 -33 75 -34 77 -2 1 -18 -32 -36
-75z m42 11 c2 -10 8 -26 12 -35 6 -15 2 -18 -24 -18 -34 0 -37 6 -19 45 13
29 24 32 31 8z"/>
<path d="M288 563 c8 -3 12 -31 12 -88 0 -57 -4 -85 -12 -88 -7 -3 20 -6 60
-6 39 -1 72 3 72 8 0 5 -18 7 -41 4 -51 -7 -59 3 -59 82 0 63 5 78 30 88 8 3
-5 5 -30 5 -25 0 -39 -2 -32 -5z"/>
<path d="M458 563 c8 -3 12 -31 12 -88 0 -57 -4 -85 -12 -88 -7 -3 20 -6 60
-6 39 -1 72 3 72 8 0 5 -18 7 -41 4 -51 -7 -59 3 -59 82 0 63 5 78 30 88 8 3
-5 5 -30 5 -25 0 -39 -2 -32 -5z"/>
<path d="M828 558 c20 -10 22 -18 22 -84 0 -59 -3 -75 -17 -83 -15 -9 -12 -10
17 -11 22 0 30 3 22 9 -9 5 -12 27 -10 72 l3 64 55 -68 c39 -50 56 -64 58 -52
2 10 0 20 -5 24 -5 3 -32 36 -62 74 -42 54 -58 67 -79 66 -27 0 -27 0 -4 -11z"/>
<path d="M963 559 c11 -7 23 -7 35 0 14 9 11 10 -18 10 -29 0 -32 -1 -17 -10z"/>
<path d="M1793 559 c14 -8 17 -24 17 -84 0 -60 -3 -76 -17 -84 -14 -8 -8 -10
27 -10 35 0 41 2 28 10 -18 10 -26 79 -10 79 4 0 24 -16 42 -35 29 -30 32 -37
20 -45 -10 -7 9 -10 60 -10 46 0 70 4 61 9 -10 7 -11 13 -2 30 17 30 87 30 96
0 5 -14 2 -25 -6 -30 -9 -6 -1 -9 25 -9 37 0 38 1 24 18 -9 9 -31 52 -49 95
l-33 79 -27 -64 c-61 -137 -67 -140 -140 -71 l-51 47 46 43 45 43 -29 0 c-22
0 -27 -4 -23 -18 3 -13 -7 -27 -31 -46 l-36 -27 0 35 c0 23 6 39 18 45 13 8 7
10 -28 10 -35 0 -41 -2 -27 -10z m290 -56 c2 -10 8 -26 12 -35 6 -15 2 -18
-24 -18 -34 0 -37 6 -19 45 13 29 24 32 31 8z"/>
<path d="M2198 563 c8 -3 12 -31 12 -88 0 -57 -4 -85 -12 -88 -7 -3 5 -6 27
-6 32 0 36 2 23 10 -23 13 -25 79 -3 79 8 0 28 -20 45 -45 l31 -45 80 0 c114
0 148 22 149 96 0 68 -23 87 -111 92 -64 3 -72 2 -56 -10 15 -11 17 -26 15
-88 -3 -73 -4 -75 -29 -78 -21 -2 -33 5 -58 40 -29 39 -30 43 -13 49 28 11 34
47 11 70 -14 14 -32 19 -71 18 -29 0 -47 -3 -40 -6z m96 -25 c15 -25 -3 -52
-38 -56 -24 -3 -26 0 -26 31 0 18 3 37 7 41 12 12 45 2 57 -16z m207 3 c19
-15 24 -29 24 -66 0 -54 -28 -85 -76 -85 l-29 0 0 85 0 85 29 0 c16 0 39 -9
52 -19z"/>
<path d="M2588 564 c8 -4 12 -32 12 -89 0 -57 -4 -85 -12 -88 -7 -3 20 -6 60
-6 39 -1 72 3 72 7 0 5 -21 8 -47 8 l-48 -1 -3 39 -3 38 40 -4 c25 -2 41 1 41
7 0 6 -16 9 -40 7 l-40 -4 0 41 c0 41 0 41 38 41 21 0 44 -6 51 -12 11 -11 13
-10 9 2 -3 11 -22 16 -74 17 -38 1 -63 0 -56 -3z"/>
<path d="M2800 557 c-55 -28 -66 -103 -21 -148 33 -33 76 -38 107 -13 18 15
18 15 -3 5 -58 -29 -103 4 -103 74 0 52 25 85 65 85 14 0 34 -9 45 -20 19 -19
20 -19 20 -1 0 13 -10 20 -31 25 -43 8 -50 8 -79 -7z"/>
<path d="M671 479 c-19 -44 -42 -84 -50 -89 -12 -7 -7 -9 19 -10 23 0 30 3 21
9 -8 5 -11 16 -6 30 9 30 79 30 96 0 9 -17 8 -23 -2 -30 -9 -6 0 -9 26 -9 30
1 36 3 24 10 -9 5 -31 46 -50 90 -18 44 -35 80 -38 80 -3 0 -21 -36 -40 -81z
m57 -25 c-4 -3 -17 -4 -31 -2 -25 3 -25 3 -10 38 l15 35 16 -32 c8 -18 13 -35
10 -39z"/>
<path d="M1201 534 c0 -11 3 -14 6 -6 3 7 2 16 -1 19 -3 4 -6 -2 -5 -13z"/>
<path d="M1396 521 c-3 -5 1 -11 9 -15 8 -3 15 -1 15 4 0 13 -18 22 -24 11z"/>
<path d="M1211 494 c0 -11 3 -14 6 -6 3 7 2 16 -1 19 -3 4 -6 -2 -5 -13z"/>
<path d="M1460 478 c0 -21 -11 -23 -28 -6 -17 17 -14 -3 3 -26 8 -11 15 -14
15 -8 0 7 5 12 11 12 6 0 9 -6 6 -13 -3 -7 4 -19 14 -25 16 -10 19 -9 19 3 0
8 -5 15 -11 15 -6 0 -9 6 -6 14 3 8 -1 22 -8 33 -13 17 -14 17 -15 1z"/>
<path d="M1505 460 c9 -31 11 -33 24 -29 5 2 0 15 -11 29 l-21 25 8 -25z"/>
<path d="M1544 316 c-5 -12 -17 -20 -26 -20 -14 1 -15 -2 -5 -23 11 -24 11
-24 26 -5 9 11 23 23 32 28 14 8 13 11 -1 25 -15 14 -17 14 -26 -5z"/>
<path d="M1180 316 c-6 -9 -10 -21 -7 -28 4 -9 6 -7 6 4 1 9 7 18 14 21 6 2 9
7 6 11 -3 4 -12 0 -19 -8z"/>
</g>
</svg>
